<svg width="36" height="34" viewBox="0 0 36 34" fill="none" xmlns="http://www.w3.org/2000/svg">
<mask id="path-1-inside-1_156_123" fill="white">
<path d="M13.1738 25.9228C12.793 27.8615 11.0844 29.3239 9.03437 29.3239H5.65944C5.19346 29.3239 4.8157 28.9461 4.8157 28.4801V25.1048C4.8157 23.0545 6.27803 21.3458 8.2165 20.9649L8.23644 20.3864C8.27017 19.4082 8.3709 18.4481 8.53407 17.5104H2.28451C1.6876 17.5104 1.27943 16.9075 1.50112 16.3532L4.87605 7.91498C5.00418 7.59462 5.31443 7.38454 5.65944 7.38454H13.253C13.2959 7.38454 13.338 7.38774 13.3791 7.3939C17.3521 2.86413 23.2508 0.0887945 29.7418 0.312645C30.7722 0.348183 31.7987 0.460301 32.8125 0.648073C33.1561 0.711703 33.4249 0.980536 33.4885 1.32414C34.8732 8.80199 32.0721 16.0857 26.7439 20.7627C26.7497 20.8028 26.7528 20.8439 26.7528 20.8857V28.4801C26.7528 28.8251 26.5427 29.1354 26.2224 29.2636L17.7851 32.6389C17.2308 32.8606 16.628 32.4524 16.628 31.8554V25.6026C15.6776 25.7692 14.7167 25.8696 13.7523 25.9028L13.1738 25.9228ZM11.5445 25.4332L8.70599 22.5945C7.46318 22.7555 6.50317 23.818 6.50317 25.1048V27.6363H9.03437C10.321 27.6363 11.3835 26.6762 11.5445 25.4332ZM18.3154 25.2348V30.609L25.0653 27.9088V22.0894C23.0705 23.5051 20.7983 24.5859 18.3154 25.2348ZM8.9007 15.8228C9.54402 13.3613 10.6249 11.0829 12.0528 9.07219H6.23067L3.53073 15.8228H8.9007ZM12.7467 24.2489L13.6941 24.2162C14.641 24.1835 15.5842 24.0805 16.5158 23.908C26.7025 22.0213 33.4954 12.3799 31.9273 2.20961C31.1844 2.09546 30.4352 2.02521 29.6836 1.99929C19.1339 1.63546 10.2867 9.89369 9.92291 20.4446L9.89023 21.3921L12.7467 24.2489ZM21.6904 17.5104C18.8945 17.5104 16.628 15.2437 16.628 12.4475C16.628 9.6513 18.8945 7.38454 21.6904 7.38454C24.4862 7.38454 26.7528 9.6513 26.7528 12.4475C26.7528 15.2437 24.4862 17.5104 21.6904 17.5104ZM21.6904 15.8228C23.5543 15.8228 25.0653 14.3116 25.0653 12.4475C25.0653 10.5834 23.5543 9.07219 21.6904 9.07219C19.8264 9.07219 18.3154 10.5834 18.3154 12.4475C18.3154 14.3116 19.8264 15.8228 21.6904 15.8228Z"/>
</mask>
<path d="M13.1738 25.9228C12.793 27.8615 11.0844 29.3239 9.03437 29.3239H5.65944C5.19346 29.3239 4.8157 28.9461 4.8157 28.4801V25.1048C4.8157 23.0545 6.27803 21.3458 8.2165 20.9649L8.23644 20.3864C8.27017 19.4082 8.3709 18.4481 8.53407 17.5104H2.28451C1.6876 17.5104 1.27943 16.9075 1.50112 16.3532L4.87605 7.91498C5.00418 7.59462 5.31443 7.38454 5.65944 7.38454H13.253C13.2959 7.38454 13.338 7.38774 13.3791 7.3939C17.3521 2.86413 23.2508 0.0887945 29.7418 0.312645C30.7722 0.348183 31.7987 0.460301 32.8125 0.648073C33.1561 0.711703 33.4249 0.980536 33.4885 1.32414C34.8732 8.80199 32.0721 16.0857 26.7439 20.7627C26.7497 20.8028 26.7528 20.8439 26.7528 20.8857V28.4801C26.7528 28.8251 26.5427 29.1354 26.2224 29.2636L17.7851 32.6389C17.2308 32.8606 16.628 32.4524 16.628 31.8554V25.6026C15.6776 25.7692 14.7167 25.8696 13.7523 25.9028L13.1738 25.9228ZM11.5445 25.4332L8.70599 22.5945C7.46318 22.7555 6.50317 23.818 6.50317 25.1048V27.6363H9.03437C10.321 27.6363 11.3835 26.6762 11.5445 25.4332ZM18.3154 25.2348V30.609L25.0653 27.9088V22.0894C23.0705 23.5051 20.7983 24.5859 18.3154 25.2348ZM8.9007 15.8228C9.54402 13.3613 10.6249 11.0829 12.0528 9.07219H6.23067L3.53073 15.8228H8.9007ZM12.7467 24.2489L13.6941 24.2162C14.641 24.1835 15.5842 24.0805 16.5158 23.908C26.7025 22.0213 33.4954 12.3799 31.9273 2.20961C31.1844 2.09546 30.4352 2.02521 29.6836 1.99929C19.1339 1.63546 10.2867 9.89369 9.92291 20.4446L9.89023 21.3921L12.7467 24.2489ZM21.6904 17.5104C18.8945 17.5104 16.628 15.2437 16.628 12.4475C16.628 9.6513 18.8945 7.38454 21.6904 7.38454C24.4862 7.38454 26.7528 9.6513 26.7528 12.4475C26.7528 15.2437 24.4862 17.5104 21.6904 17.5104ZM21.6904 15.8228C23.5543 15.8228 25.0653 14.3116 25.0653 12.4475C25.0653 10.5834 23.5543 9.07219 21.6904 9.07219C19.8264 9.07219 18.3154 10.5834 18.3154 12.4475C18.3154 14.3116 19.8264 15.8228 21.6904 15.8228Z" fill="#3A7CA5"/>
<path d="M13.1738 25.9228L13.1049 23.924L11.5175 23.9787L11.2113 25.5373L13.1738 25.9228ZM8.2165 20.9649L8.60208 22.9274L10.1606 22.6212L10.2153 21.0339L8.2165 20.9649ZM8.23644 20.3864L10.2353 20.4553V20.4553L8.23644 20.3864ZM8.53407 17.5104L10.5045 17.8533L10.9121 15.5104H8.53407V17.5104ZM1.50112 16.3532L-0.35586 15.6105H-0.355861L1.50112 16.3532ZM4.87605 7.91498L6.73303 8.65769V8.65769L4.87605 7.91498ZM13.3791 7.3939L13.0828 9.37183L14.1627 9.5336L14.8827 8.71268L13.3791 7.3939ZM29.7418 0.312645L29.8107 -1.68617L29.7418 0.312645ZM32.8125 0.648073L32.4483 2.61463V2.61463L32.8125 0.648073ZM33.4885 1.32414L35.4551 0.959996V0.959996L33.4885 1.32414ZM26.7439 20.7627L25.4245 19.2596L24.6078 19.9765L24.7648 21.0517L26.7439 20.7627ZM26.2224 29.2636L25.4795 27.4067V27.4067L26.2224 29.2636ZM17.785 32.6389L18.5279 34.4958V34.4958L17.785 32.6389ZM16.628 25.6026H18.628V23.2213L16.2825 23.6326L16.628 25.6026ZM13.7523 25.9028L13.8212 27.9016H13.8212L13.7523 25.9028ZM11.5445 25.4332L13.5279 25.6901L13.6542 24.7147L12.9587 24.0191L11.5445 25.4332ZM8.70599 22.5945L10.1203 21.1803L9.42466 20.4846L8.44902 20.611L8.70599 22.5945ZM6.50317 27.6363H4.50317V29.6363H6.50317V27.6363ZM18.3154 25.2348L17.8097 23.2998L16.3154 23.6903V25.2348H18.3154ZM18.3154 30.609H16.3154V33.5632L19.0583 32.466L18.3154 30.609ZM25.0653 27.9088L25.8081 29.7657L27.0653 29.2628V27.9088H25.0653ZM25.0653 22.0894H27.0653V18.2175L23.9078 20.4584L25.0653 22.0894ZM8.9007 15.8228V17.8228H10.4452L10.8357 16.3285L8.9007 15.8228ZM12.0528 9.07219L13.6835 10.2302L15.926 7.07219H12.0528V9.07219ZM6.23067 9.07219V7.07219H4.87655L4.37369 8.32948L6.23067 9.07219ZM3.53073 15.8228L1.67375 15.0801L0.576778 17.8228H3.53073V15.8228ZM12.7466 24.2489L11.3324 25.663L11.9469 26.2776L12.8156 26.2477L12.7466 24.2489ZM13.6941 24.2162L13.7631 26.215H13.7631L13.6941 24.2162ZM16.5158 23.908L16.1516 21.9414V21.9414L16.5158 23.908ZM31.9273 2.20961L33.904 1.90486L33.6805 0.455523L32.2311 0.232812L31.9273 2.20961ZM29.6836 1.99929L29.6147 3.9981L29.6836 1.99929ZM9.92291 20.4446L11.9217 20.5135V20.5135L9.92291 20.4446ZM9.89023 21.3921L7.89142 21.3232L7.86148 22.1917L8.47595 22.8063L9.89023 21.3921ZM13.1738 25.9228L11.2113 25.5373C11.0112 26.5561 10.1101 27.3239 9.03437 27.3239V29.3239V31.3239C12.0588 31.3239 14.5748 29.1668 15.1363 26.3083L13.1738 25.9228ZM9.03437 29.3239V27.3239H5.65944V29.3239V31.3239H9.03437V29.3239ZM5.65944 29.3239V27.3239C6.29822 27.3239 6.8157 27.8418 6.8157 28.4801H4.8157H2.8157C2.8157 30.0505 4.08869 31.3239 5.65944 31.3239V29.3239ZM4.8157 28.4801H6.8157V25.1048H4.8157H2.8157V28.4801H4.8157ZM4.8157 25.1048H6.8157C6.8157 24.0285 7.58371 23.1275 8.60208 22.9274L8.2165 20.9649L7.83092 19.0025C4.97234 19.5641 2.8157 22.0805 2.8157 25.1048H4.8157ZM8.2165 20.9649L10.2153 21.0339L10.2353 20.4553L8.23644 20.3864L6.23763 20.3175L6.21768 20.896L8.2165 20.9649ZM8.23644 20.3864L10.2353 20.4553C10.2658 19.5693 10.357 18.7007 10.5045 17.8533L8.53407 17.5104L6.56368 17.1675C6.3848 18.1956 6.27454 19.2472 6.23763 20.3175L8.23644 20.3864ZM8.53407 17.5104V15.5104H2.28451V17.5104V19.5104H8.53407V17.5104ZM2.28451 17.5104V15.5104C3.10282 15.5104 3.66172 16.3368 3.3581 17.0959L1.50112 16.3532L-0.355861 15.6105C-1.10286 17.4782 0.272372 19.5104 2.28451 19.5104V17.5104ZM1.50112 16.3532L3.3581 17.0959L6.73303 8.65769L4.87605 7.91498L3.01907 7.17227L-0.35586 15.6105L1.50112 16.3532ZM4.87605 7.91498L6.73303 8.65769C6.55749 9.09659 6.13237 9.38455 5.65944 9.38455V7.38454V5.38454C4.49649 5.38454 3.45087 6.09264 3.01907 7.17227L4.87605 7.91498ZM5.65944 7.38454V9.38455H13.253V7.38454V5.38454H5.65944V7.38454ZM13.253 7.38454V9.38455C13.1964 9.38455 13.1394 9.38031 13.0828 9.37183L13.3791 7.3939L13.6754 5.41597C13.5365 5.39516 13.3954 5.38454 13.253 5.38454V7.38454ZM13.3791 7.3939L14.8827 8.71268C18.477 4.61459 23.8068 2.10916 29.6728 2.31146L29.7418 0.312645L29.8107 -1.68617C22.6947 -1.93157 16.2271 1.11366 11.8755 6.07512L13.3791 7.3939ZM29.7418 0.312645L29.6728 2.31146C30.6042 2.34358 31.5319 2.44491 32.4483 2.61463L32.8125 0.648073L33.1767 -1.31848C32.0654 -1.52431 30.9403 -1.64721 29.8107 -1.68617L29.7418 0.312645ZM32.8125 0.648073L32.4483 2.61463C31.9774 2.52741 31.6091 2.15896 31.5219 1.68828L33.4885 1.32414L35.4551 0.959996C35.2407 -0.197886 34.3348 -1.104 33.1767 -1.31848L32.8125 0.648073ZM33.4885 1.32414L31.5219 1.68828C32.773 8.44494 30.245 15.0283 25.4245 19.2596L26.7439 20.7627L28.0632 22.2658C33.8992 17.1432 36.9733 9.15905 35.4551 0.959996L33.4885 1.32414ZM26.7439 20.7627L24.7648 21.0517C24.7568 20.9965 24.7528 20.941 24.7528 20.8857H26.7528H28.7528C28.7528 20.7468 28.7426 20.6092 28.7229 20.4737L26.7439 20.7627ZM26.7528 20.8857H24.7528V28.4801H26.7528H28.7528V20.8857H26.7528ZM26.7528 28.4801H24.7528C24.7528 28.0075 25.0405 27.5823 25.4795 27.4067L26.2224 29.2636L26.9652 31.1205C28.0449 30.6886 28.7528 29.6428 28.7528 28.4801H26.7528ZM26.2224 29.2636L25.4795 27.4067L17.0422 30.7819L17.785 32.6389L18.5279 34.4958L26.9652 31.1205L26.2224 29.2636ZM17.785 32.6389L17.0422 30.7819C17.802 30.478 18.628 31.0377 18.628 31.8554H16.628H14.628C14.628 33.867 16.6596 35.2432 18.5279 34.4958L17.785 32.6389ZM16.628 31.8554H18.628V25.6026H16.628H14.628V31.8554H16.628ZM16.628 25.6026L16.2825 23.6326C15.4235 23.7833 14.555 23.874 13.6833 23.904L13.7523 25.9028L13.8212 27.9016C14.8784 27.8652 15.9317 27.7552 16.9734 27.5725L16.628 25.6026ZM13.7523 25.9028L13.6834 23.904L13.1049 23.924L13.1738 25.9228L13.2427 27.9216L13.8212 27.9016L13.7523 25.9028ZM11.5445 25.4332L12.9587 24.0191L10.1203 21.1803L8.70599 22.5945L7.2917 24.0086L10.1302 26.8474L11.5445 25.4332ZM8.70599 22.5945L8.44902 20.611C6.22207 20.8995 4.50317 22.8 4.50317 25.1048H6.50317H8.50317C8.50317 24.8361 8.7043 24.6114 8.96295 24.5779L8.70599 22.5945ZM6.50317 25.1048H4.50317V27.6363H6.50317H8.50317V25.1048H6.50317ZM6.50317 27.6363V29.6363H9.03437V27.6363V25.6363H6.50317V27.6363ZM9.03437 27.6363V29.6363C11.3394 29.6363 13.2395 27.9169 13.5279 25.6901L11.5445 25.4332L9.56103 25.1763C9.52747 25.4354 9.30265 25.6363 9.03437 25.6363V27.6363ZM18.3154 25.2348H16.3154V30.609H18.3154H20.3154V25.2348H18.3154ZM18.3154 30.609L19.0583 32.466L25.8081 29.7657L25.0653 27.9088L24.3224 26.0519L17.5726 28.7521L18.3154 30.609ZM25.0653 27.9088H27.0653V22.0894H25.0653H23.0653V27.9088H25.0653ZM25.0653 22.0894L23.9078 20.4584C22.1064 21.7368 20.0544 22.7132 17.8097 23.2998L18.3154 25.2348L18.8211 27.1698C21.5422 26.4587 24.0346 25.2733 26.2228 23.7204L25.0653 22.0894ZM8.9007 15.8228L10.8357 16.3285C11.4166 14.1059 12.3928 12.0477 13.6835 10.2302L12.0528 9.07219L10.4221 7.91422C8.85709 10.1181 7.67143 12.6168 6.9657 15.317L8.9007 15.8228ZM12.0528 9.07219V7.07219H6.23067V9.07219V11.0722H12.0528V9.07219ZM6.23067 9.07219L4.37369 8.32948L1.67375 15.0801L3.53073 15.8228L5.38771 16.5655L8.08765 9.8149L6.23067 9.07219ZM3.53073 15.8228V17.8228H8.9007V15.8228V13.8228H3.53073V15.8228ZM12.7466 24.2489L12.8156 26.2477L13.7631 26.215L13.6941 24.2162L13.6252 22.2174L12.6777 22.25L12.7466 24.2489ZM13.6941 24.2162L13.7631 26.215C14.809 26.1789 15.8509 26.0651 16.88 25.8745L16.5158 23.908L16.1516 21.9414C15.3174 22.0959 14.473 22.1881 13.6252 22.2174L13.6941 24.2162ZM16.5158 23.908L16.88 25.8745C28.1331 23.7904 35.6362 13.1402 33.904 1.90486L31.9273 2.20961L29.9507 2.51437C31.3545 11.6197 25.2718 20.2523 16.1516 21.9414L16.5158 23.908ZM31.9273 2.20961L32.2311 0.232812C31.4104 0.106709 30.5828 0.0291065 29.7525 0.000475138L29.6836 1.99929L29.6147 3.9981C30.2876 4.02131 30.9584 4.0842 31.6236 4.18641L31.9273 2.20961ZM29.6836 1.99929L29.7525 0.000475138C18.0987 -0.401425 8.32593 8.72106 7.92409 20.3756L9.92291 20.4446L11.9217 20.5135C12.2474 11.0663 20.169 3.67235 29.6147 3.9981L29.6836 1.99929ZM9.92291 20.4446L7.92409 20.3756L7.89142 21.3232L9.89023 21.3921L11.889 21.4611L11.9217 20.5135L9.92291 20.4446ZM9.89023 21.3921L8.47595 22.8063L11.3324 25.663L12.7466 24.2489L14.1609 22.8347L11.3045 19.978L9.89023 21.3921ZM21.6904 17.5104V15.5104C19.9992 15.5104 18.628 14.1393 18.628 12.4475H16.628H14.628C14.628 16.348 17.7897 19.5104 21.6904 19.5104V17.5104ZM16.628 12.4475H18.628C18.628 10.7557 19.9992 9.38455 21.6904 9.38455V7.38454V5.38454C17.7897 5.38454 14.628 8.54693 14.628 12.4475H16.628ZM21.6904 7.38454V9.38455C23.3815 9.38455 24.7528 10.7557 24.7528 12.4475H26.7528H28.7528C28.7528 8.54693 25.591 5.38454 21.6904 5.38454V7.38454ZM26.7528 12.4475H24.7528C24.7528 14.1393 23.3815 15.5104 21.6904 15.5104V17.5104V19.5104C25.591 19.5104 28.7528 16.348 28.7528 12.4475H26.7528ZM21.6904 15.8228V17.8228C24.659 17.8228 27.0653 15.416 27.0653 12.4475H25.0653H23.0653C23.0653 13.2072 22.4495 13.8228 21.6904 13.8228V15.8228ZM25.0653 12.4475H27.0653C27.0653 9.47899 24.659 7.07219 21.6904 7.07219V9.07219V11.0722C22.4495 11.0722 23.0653 11.6877 23.0653 12.4475H25.0653ZM21.6904 9.07219V7.07219C18.7217 7.07219 16.3154 9.47899 16.3154 12.4475H18.3154H20.3154C20.3154 11.6877 20.9312 11.0722 21.6904 11.0722V9.07219ZM18.3154 12.4475H16.3154C16.3154 15.416 18.7217 17.8228 21.6904 17.8228V15.8228V13.8228C20.9312 13.8228 20.3154 13.2072 20.3154 12.4475H18.3154Z" fill="#3A7CA5" mask="url(#path-1-inside-1_156_123)"/>
</svg>
