<svg width="50" height="46" viewBox="0 0 50 46" fill="none" xmlns="http://www.w3.org/2000/svg">
<path d="M26.8974 7.24121C21.2395 7.24121 16.6362 11.3028 16.6362 16.2953C16.6362 18.6859 17.6825 20.9408 19.5825 22.6447L19.7209 22.7688C20.4958 23.49 21.0319 24.3729 21.2823 25.3373V27.5994C21.2823 29.8688 23.3748 31.7151 25.9468 31.7151H27.8481C30.4201 31.7151 32.5126 29.8688 32.5126 27.5994V25.3373C32.7626 24.3743 33.2976 23.4925 34.0708 22.7719L34.2125 22.6447C36.1125 20.9407 37.1588 18.6858 37.1588 16.2953C37.1587 11.3028 32.5554 7.24121 26.8974 7.24121ZM27.8481 29.0416H25.9468C25.0455 29.0416 24.3121 28.3946 24.3121 27.5993V26.5272H29.4827V27.5993H29.4828C29.4828 28.3946 28.7495 29.0416 27.8481 29.0416ZM25.8818 16.2952C25.8818 15.8011 26.3374 15.399 26.8974 15.399C27.4574 15.399 27.9131 15.801 27.9131 16.2952C27.9131 16.7893 27.4574 17.1913 26.8974 17.1913C26.3374 17.1913 25.8818 16.7893 25.8818 16.2952ZM32.096 20.7306L32.0629 20.7598C31.0626 21.6391 30.3101 22.6943 29.8486 23.8538H28.4123V19.6042C29.8944 19.0739 30.9429 17.791 30.9429 16.2954C30.9429 14.3271 29.128 12.7258 26.8973 12.7258C24.6667 12.7258 22.8519 14.3271 22.8519 16.2954C22.8519 17.791 23.9003 19.074 25.3823 19.6042V23.8538H23.9461C23.4848 22.6942 22.7321 21.6391 21.7319 20.7598L21.6998 20.7316C20.3877 19.5355 19.666 17.9623 19.666 16.2954C19.666 12.7771 22.9099 9.91467 26.8973 9.91467C30.8847 9.91467 34.1288 12.777 34.1288 16.2954C34.1289 17.9618 33.4074 19.5345 32.096 20.7306Z" fill="#3A7CA5"/>
<path d="M26.8974 0C16.483 0 7.99398 7.41403 7.85383 16.5744L3.05713 28.7452H7.85213V37.8141H17.1571V45H39.0258V29.7603C41.0424 28.2873 42.7178 26.4419 43.8971 24.388C45.2544 22.0238 45.9428 19.4724 45.9428 16.8048C45.9427 7.53857 37.399 0 26.8974 0ZM36.5928 28.0521L35.996 28.4533V42.3266H20.1869V35.1408H10.882V26.0718H7.31863L10.882 17.0304V16.8046C10.882 9.01267 18.0665 2.67337 26.8974 2.67337C35.7284 2.67337 42.9129 9.01267 42.9129 16.8047C42.9129 21.2525 40.6094 25.3521 36.5928 28.0521Z" fill="#3A7CA5"/>
</svg>
