<svg width="36" height="34" viewBox="0 0 36 34" fill="none" xmlns="http://www.w3.org/2000/svg">
<path d="M24.6128 1.30591C24.6319 1.32101 24.6668 1.3589 24.6851 1.43579C24.7051 1.52037 24.6942 1.60809 24.6597 1.67603L24.6479 1.69849L24.6382 1.72095L11.1587 31.6877C11.1572 31.6906 11.1552 31.693 11.1538 31.6956C11.123 31.6921 11.0828 31.6859 11.0317 31.6731C11.0256 31.6298 11.0236 31.5769 11.0308 31.5208C11.0393 31.4537 11.0575 31.4021 11.0737 31.3704L11.0845 31.3479L11.0952 31.3245L24.5737 1.3606C24.5895 1.33107 24.6039 1.31445 24.6128 1.30688V1.30591ZM9.00928 10.55L9.01123 10.553C9.09315 10.6449 9.09773 10.8325 9.021 10.9387L3.47021 16.1174L2.68701 16.8479L3.47021 17.5793L9.02197 22.7581C9.09725 22.8621 9.09412 23.0505 9.01025 23.1448L9.00928 23.1467C9.00093 23.1562 8.99246 23.1599 8.98779 23.1633C8.98297 23.1598 8.9749 23.1554 8.96631 23.1458L8.93506 23.1096L8.8999 23.0774L2.48486 17.095C2.46201 17.0601 2.43637 16.9952 2.44092 16.8938L2.44287 16.8479L2.44092 16.803C2.43618 16.6981 2.46299 16.6323 2.48486 16.5999L8.8999 10.6184L8.93506 10.5862L8.96631 10.551C8.97546 10.5407 8.98294 10.5349 8.98779 10.5315C8.99247 10.5348 9.00041 10.54 9.00928 10.55ZM26.3149 10.552L26.3452 10.5872L26.3794 10.6184L32.7944 16.5999C32.8163 16.6322 32.8441 16.6978 32.8394 16.803L32.8374 16.8479L32.8394 16.8938C32.844 16.9966 32.8165 17.0615 32.7935 17.0959L26.3794 23.0774L26.3452 23.1096L26.314 23.1458C26.3051 23.1558 26.2964 23.1598 26.2915 23.1633C26.2869 23.1599 26.2791 23.1558 26.271 23.1467L26.269 23.1448L26.2407 23.1028C26.186 23.0021 26.1917 22.849 26.2554 22.76L31.8091 17.5793L32.5933 16.8479L31.8091 16.1174L26.2573 10.9377C26.182 10.8318 26.1861 10.6454 26.269 10.552L26.27 10.551C26.279 10.5409 26.2868 10.5357 26.2915 10.5325C26.2963 10.5357 26.305 10.5409 26.3149 10.552Z" fill="#3A7CA5" stroke="#3A7CA5" stroke-width="2"/>
</svg>
