<svg width="51" height="45" viewBox="0 0 51 45" fill="none" xmlns="http://www.w3.org/2000/svg">
<path d="M12.0295 19.012C11.8894 18.74 11.5866 18.5659 11.2536 18.5659C11.2529 18.5659 11.2523 18.5659 11.2516 18.5659C10.9178 18.5666 10.6149 18.742 10.4759 19.0152L6.237 27.3483C6.04042 27.7348 6.2291 28.1917 6.65858 28.3686C6.77397 28.4161 6.89502 28.4386 7.0141 28.4386C7.33831 28.4386 7.64844 28.2717 7.79226 27.989L8.85542 25.899H13.6909L14.769 27.9924C14.9677 28.378 15.4759 28.5459 15.9046 28.367C16.3332 28.1882 16.5195 27.7306 16.3209 27.3449L12.0295 19.012ZM9.63858 24.3595L11.2584 21.1754L12.8982 24.3595H9.63858Z" fill="#3A7CA5"/>
<path d="M21.9075 18.4708H17.7725C17.3001 18.4708 16.9172 18.8154 16.9172 19.2406V27.6686C16.9172 28.0937 17.3001 28.4383 17.7725 28.4383C18.2449 28.4383 18.6278 28.0937 18.6278 27.6686V24.4671H21.9075C23.7443 24.4671 25.2386 23.1222 25.2386 21.4691C25.2387 19.8159 23.7443 18.4708 21.9075 18.4708ZM21.9075 22.9276H18.6278V20.0103H21.9075C22.8012 20.0103 23.528 20.6647 23.528 21.469C23.5282 22.2733 22.8012 22.9276 21.9075 22.9276Z" fill="#3A7CA5"/>
<path d="M26.7517 18.4708C26.2794 18.4708 25.8965 18.8154 25.8965 19.2406V27.6686C25.8965 28.0937 26.2794 28.4383 26.7517 28.4383C27.2241 28.4383 27.607 28.0937 27.607 27.6686V19.2406C27.607 18.8154 27.224 18.4708 26.7517 18.4708Z" fill="#3A7CA5"/>
<path d="M48.4628 5.87341H1.53737C0.689605 5.87341 0 6.49429 0 7.25728V38.4797C0 39.2426 0.689605 39.8633 1.53737 39.8633H48.4629C49.3105 39.8633 50.0001 39.2426 50.0001 38.4797V7.25728C50 6.49429 49.3105 5.87341 48.4628 5.87341ZM36.967 31.0712C37.6462 29.6274 39.2108 28.6945 40.9532 28.6945C41.5336 28.6945 42.1007 28.7984 42.6391 29.0035C44.8359 29.841 45.8666 32.1308 44.9366 34.1081C44.2567 35.5517 42.6921 36.4845 40.9505 36.4845H40.9504C40.37 36.4845 39.8029 36.3806 39.2649 36.1753C38.2005 35.7699 37.3753 35.0156 36.9413 34.0515C36.5072 33.0874 36.5163 32.029 36.967 31.0712ZM42.2195 9.81494C43.12 9.81494 43.8493 10.4718 43.8493 11.2818C43.8493 12.0921 43.12 12.7487 42.2195 12.7487C41.3196 12.7487 40.5899 12.0921 40.5899 11.2818C40.5899 10.4718 41.3196 9.81494 42.2195 9.81494ZM37.3309 9.81494C38.2308 9.81494 38.9607 10.4718 38.9607 11.2818C38.9607 12.0921 38.2308 12.7487 37.3309 12.7487C36.4311 12.7487 35.7011 12.0921 35.7011 11.2818C35.7011 10.4718 36.4311 9.81494 37.3309 9.81494ZM32.4422 9.81494C33.3421 9.81494 34.0713 10.4718 34.0713 11.2818C34.0713 12.0921 33.3421 12.7487 32.4422 12.7487C31.5417 12.7487 30.8124 12.0921 30.8124 11.2818C30.8125 10.4718 31.5418 9.81494 32.4422 9.81494ZM2.79868 37.5538V17.116H47.2013V25.0826C46.9991 24.8218 46.7175 24.6066 46.3688 24.4736L43.6564 23.4402C43.415 23.3481 43.1603 23.3014 42.8993 23.3014C42.1157 23.3014 41.4121 23.7206 41.1068 24.3696L40.942 24.72C39.7279 24.7353 38.5234 24.987 37.4251 25.4534L37.1059 25.2039C36.9515 25.0833 36.7771 24.9859 36.5886 24.9141C36.3463 24.8218 36.0909 24.7751 35.8292 24.7751C35.2666 24.7751 34.7317 24.9951 34.3616 25.3789L32.4312 27.382C32.0913 27.7356 31.9239 28.1865 31.96 28.6532C31.9975 29.1199 32.2342 29.5455 32.6263 29.8511L32.9443 30.0995C32.5818 31.1474 32.4755 32.2523 32.6332 33.3376L32.2715 33.5335C31.3529 34.0309 31.0554 35.1087 31.6084 35.9366L32.7689 37.671H2.92895C2.85711 37.671 2.79868 37.6184 2.79868 37.5538Z" fill="#3A7CA5"/>
</svg>
