<svg width="36" height="34" viewBox="0 0 36 34" fill="none" xmlns="http://www.w3.org/2000/svg">
<path d="M7.19995 4.35005C7.19995 2.1133 9.21276 0.300049 11.6957 0.300049H24.3042C26.7871 0.300049 28.8 2.1133 28.8 4.35005V28.65C28.8 30.8868 26.7871 32.7 24.3042 32.7H11.6957C9.21276 32.7 7.19995 30.8868 7.19995 28.65V4.35005ZM8.99825 4.35005V28.65C8.99825 29.9921 10.2059 31.08 11.6957 31.08H24.3042C25.794 31.08 27.0017 29.9921 27.0017 28.65V4.35005C27.0017 3.008 25.794 1.92005 24.3042 1.92005H11.6957C10.2059 1.92005 8.99825 3.008 8.99825 4.35005ZM16.1914 27.84C16.1914 26.9458 16.9971 26.22 17.9897 26.22C18.9824 26.22 19.788 26.9458 19.788 27.84C19.788 28.7343 18.9824 29.46 17.9897 29.46C16.9971 29.46 16.1914 28.7343 16.1914 27.84ZM10.7965 7.59005C10.7965 7.1427 11.1991 6.78005 11.6957 6.78005H24.2838C24.7804 6.78005 25.1829 7.1427 25.1829 7.59005V15.69C25.1829 16.1374 24.7804 16.5 24.2838 16.5H11.6957C11.1991 16.5 10.7965 16.1374 10.7965 15.69V7.59005ZM12.5948 8.40005V14.88H23.3846V8.40005H12.5948ZM11.6957 19.74C11.1991 19.74 10.7965 19.3774 10.7965 18.93C10.7965 18.4827 11.1991 18.12 11.6957 18.12H24.2838C24.7804 18.12 25.1829 18.4827 25.1829 18.93C25.1829 19.3774 24.7804 19.74 24.2838 19.74H11.6957ZM11.6957 22.98C11.1991 22.98 10.7965 22.6174 10.7965 22.17C10.7965 21.7227 11.1991 21.36 11.6957 21.36H20.6872C21.1838 21.36 21.5863 21.7227 21.5863 22.17C21.5863 22.6174 21.1838 22.98 20.6872 22.98H11.6957Z" fill="#3A7CA5"/>
</svg>
