<svg width="36" height="34" viewBox="0 0 36 34" fill="none" xmlns="http://www.w3.org/2000/svg">
<path d="M20.6783 28.3433H15.2771C14.7845 28.3433 14.3876 27.9271 14.3876 27.4174V26.7666C14.3935 26.2072 14.3671 25.8143 14.3106 25.595C14.0072 24.4386 13.2046 23.469 12.4273 22.5289C12.1708 22.2213 11.9289 21.9279 11.7065 21.6324C10.5878 20.1512 9.99292 18.3765 9.99292 16.4942C9.99292 11.8991 13.5859 8.16187 18.0001 8.16187C22.4133 8.16187 26.0053 11.8991 26.0053 16.4942C26.0053 18.3775 25.4133 20.1542 24.2917 21.6345C24.0957 21.8964 23.8694 22.1705 23.6334 22.4599C22.8376 23.4345 21.9491 24.5219 21.6428 25.6701C21.5892 25.8752 21.5628 26.2438 21.5667 26.7595V27.4154C21.5667 27.9271 21.1698 28.3433 20.6783 28.3433ZM16.1685 26.4895H19.7888C19.7985 25.7686 19.8658 25.4133 19.9273 25.1818C20.3398 23.6355 21.3619 22.3797 22.2641 21.2771C22.5011 20.9867 22.7088 20.7329 22.8931 20.4913C23.7641 19.3379 24.2254 17.9582 24.2254 16.4952C24.2254 12.9214 21.4341 10.0137 18.0011 10.0137C14.568 10.0137 11.7748 12.9214 11.7748 16.4952C11.7748 17.9551 12.2351 19.3359 13.107 20.4892C13.3128 20.7634 13.5381 21.0324 13.7771 21.3197C14.5992 22.3137 15.6184 23.5452 16.03 25.1097C16.0905 25.3544 16.1607 25.727 16.1685 26.4895Z" fill="#3A7CA5"/>
<path d="M20.6782 30.7957H15.277C14.7845 30.7957 14.3876 30.3805 14.3876 29.8678C14.3876 29.3561 14.7845 28.9429 15.277 28.9429H20.6782C21.1698 28.9429 21.5667 29.3561 21.5667 29.8678C21.5667 30.3805 21.1698 30.7957 20.6782 30.7957Z" fill="#3A7CA5"/>
<path d="M19.3285 33.2445H16.6279C16.1353 33.2445 15.7365 32.8293 15.7365 32.3186C15.7365 31.8069 16.1353 31.3906 16.6279 31.3906H19.3285C19.8181 31.3906 20.2179 31.8069 20.2179 32.3186C20.2179 32.8293 19.8181 33.2445 19.3285 33.2445Z" fill="#3A7CA5"/>
<path d="M32.2315 17.4212H28.6736C28.1821 17.4212 27.7822 17.008 27.7822 16.4953C27.7822 15.9836 28.1821 15.5693 28.6736 15.5693H32.2315C32.7231 15.5693 33.12 15.9836 33.12 16.4953C33.12 17.008 32.7231 17.4212 32.2315 17.4212Z" fill="#3A7CA5"/>
<path d="M7.32735 17.4212H3.7685C3.27695 17.4212 2.88 17.008 2.88 16.4953C2.88 15.9836 3.27695 15.5693 3.7685 15.5693H7.32637C7.81792 15.5693 8.21779 15.9836 8.21779 16.4953C8.21877 17.008 7.8189 17.4212 7.32735 17.4212Z" fill="#3A7CA5"/>
<path d="M17.9999 6.31319C17.5074 6.31319 17.1085 5.89997 17.1085 5.38726V1.68154C17.1085 1.17086 17.5074 0.755615 17.9999 0.755615C18.4925 0.755615 18.8894 1.17086 18.8894 1.68154V5.38625C18.8894 5.89896 18.4925 6.31319 17.9999 6.31319Z" fill="#3A7CA5"/>
<path d="M28.0592 27.8966C27.8329 27.8966 27.6057 27.8062 27.4311 27.6245L24.9158 25.0051C24.5686 24.6447 24.5686 24.0568 24.9158 23.6944C25.264 23.3329 25.8267 23.335 26.1739 23.6964L28.6892 26.3148C29.0374 26.6772 29.0374 27.2651 28.6892 27.6265C28.5156 27.8082 28.2893 27.8966 28.0592 27.8966Z" fill="#3A7CA5"/>
<path d="M10.4511 9.56702C10.2249 9.56702 9.99666 9.47666 9.8211 9.29493L7.30777 6.67757C6.95959 6.31512 6.95959 5.72728 7.30777 5.36483C7.65595 5.00339 8.21869 5.00339 8.5659 5.36483L11.0812 7.9832C11.4294 8.34464 11.4294 8.93349 11.0812 9.29493C10.9076 9.47666 10.6803 9.56702 10.4511 9.56702Z" fill="#3A7CA5"/>
<path d="M7.93683 27.8966C7.70959 27.8966 7.48234 27.8083 7.30777 27.6265C6.95959 27.2651 6.95959 26.6773 7.30777 26.3148L9.825 23.6944C10.1703 23.333 10.733 23.333 11.0812 23.6944C11.4294 24.0569 11.4294 24.6447 11.0812 25.0072L8.5659 27.6265C8.39132 27.8073 8.16505 27.8966 7.93683 27.8966Z" fill="#3A7CA5"/>
<path d="M25.5468 9.56747C25.3196 9.56747 25.0923 9.47711 24.9168 9.29538C24.5715 8.93394 24.5715 8.34712 24.9168 7.98568L27.4321 5.36731C27.7773 5.00587 28.344 5.00384 28.6902 5.36528C29.0384 5.72773 29.0384 6.31354 28.6902 6.67599L26.1769 9.29335C26.0033 9.47508 25.776 9.56747 25.5468 9.56747Z" fill="#3A7CA5"/>
</svg>
