<svg width="50" height="45" viewBox="0 0 50 45" fill="none" xmlns="http://www.w3.org/2000/svg">
<path d="M46.1111 3.04272H3.88887C1.74453 3.04272 0 4.61289 0 6.54271C0 8.12078 0 36.8855 0 38.4571C0 40.387 1.74453 41.9571 3.88887 41.9571H46.1111C48.2555 41.9571 50 40.387 50 38.4571C50 36.8847 50 8.12034 50 6.54271C50 4.61289 48.2555 3.04272 46.1111 3.04272ZM46.6667 38.4571C46.6667 38.7328 46.4175 38.9571 46.1111 38.9571H3.88887C3.58252 38.9571 3.3333 38.7328 3.3333 38.4571V13.521H46.6666V38.4571H46.6667ZM46.6667 10.521H3.3333V6.54271C3.3333 6.26699 3.58252 6.0427 3.88887 6.0427H46.1111C46.4175 6.0427 46.6667 6.26699 46.6667 6.54271V10.521Z" fill="#3A7CA5"/>
<path d="M7.01218 9.41014C7.70448 9.41014 8.2657 8.90504 8.2657 8.28197C8.2657 7.65891 7.70448 7.15381 7.01218 7.15381C6.31988 7.15381 5.75867 7.65891 5.75867 8.28197C5.75867 8.90504 6.31988 9.41014 7.01218 9.41014Z" fill="#3A7CA5"/>
<path d="M11.0311 9.41014C11.7234 9.41014 12.2846 8.90504 12.2846 8.28197C12.2846 7.65891 11.7234 7.15381 11.0311 7.15381C10.3388 7.15381 9.77759 7.65891 9.77759 8.28197C9.77759 8.90504 10.3388 9.41014 11.0311 9.41014Z" fill="#3A7CA5"/>
<path d="M15.05 9.41014C15.7423 9.41014 16.3035 8.90504 16.3035 8.28197C16.3035 7.65891 15.7423 7.15381 15.05 7.15381C14.3577 7.15381 13.7965 7.65891 13.7965 8.28197C13.7965 8.90504 14.3577 9.41014 15.05 9.41014Z" fill="#3A7CA5"/>
<path d="M13.8563 32.9958C15.4113 34.3954 17.7691 32.2747 16.2133 30.8745L11.0005 26.1829L16.2133 21.4914C17.7707 20.0898 15.4152 17.967 13.8563 19.37L7.46509 25.1221C6.81421 25.7079 6.81421 26.6577 7.46509 27.2435L13.8563 32.9958Z" fill="#3A7CA5"/>
<path d="M36.1436 32.9959L42.535 27.2437C43.1854 26.6584 43.1858 25.7081 42.535 25.1224L36.1436 19.3702C34.5866 17.9688 32.2272 20.0882 33.7866 21.4915L38.9995 26.183L33.7866 30.8745C32.2001 32.3024 34.6179 34.369 36.1436 32.9959Z" fill="#3A7CA5"/>
<path d="M22.0495 34.425L31.5899 19.5532C32.6931 17.8336 29.8036 16.3374 28.7031 18.0532L19.1627 32.925C18.0524 34.656 20.9586 36.1258 22.0495 34.425Z" fill="#3A7CA5"/>
</svg>
