<svg width="51" height="47" viewBox="0 0 51 47" fill="none" xmlns="http://www.w3.org/2000/svg">
<path d="M30.417 10.6257L31.2765 8.88449C31.9861 7.44589 33.1612 6.31556 34.6081 5.64111H28.3093C28.8383 6.56633 28.7796 7.59299 27.8779 8.60861C29.159 8.60861 30.1908 9.49131 30.417 10.6257Z" fill="#3A7CA5"/>
<path d="M47.8324 5.64111H41.8835C44.1279 7.365 43.8756 9.69814 42.074 10.4236L41.1837 10.7821C45.7701 10.7821 45.7393 10.3733 45.7393 13.1128C46.3496 14.336 46.3041 15.7367 45.7393 16.9294V31.523C45.7393 32.1455 45.2168 32.6503 44.5723 32.6503H6.42781C5.78335 32.6503 5.26078 32.1456 5.26078 31.523V15.7007C4.60164 14.7652 4.81807 13.8753 4.81807 11.1028C4.81807 9.73499 5.96393 8.60861 7.4043 8.60861C6.61814 7.85003 6.38714 6.67486 6.97627 5.64111H3.16756C1.6947 5.64111 0.5 6.79503 0.5 8.21783V35.473C0.5 36.8959 1.6947 38.0499 3.16767 38.0499H20.8483L18.4672 43.584H17.375C16.4261 43.584 15.6563 44.3276 15.6563 45.2443C15.6563 46.1608 16.4261 46.9044 17.375 46.9044H33.6249C34.574 46.9044 35.3438 46.1608 35.3438 45.2443C35.3438 44.3276 34.574 43.584 33.6249 43.584H32.5329L30.1518 38.0499H47.8324C49.3053 38.0499 50.4999 36.8959 50.4999 35.473V8.21783C50.5 6.79503 49.3053 5.64111 47.8324 5.64111ZM39.2045 36.3827C38.5143 36.3827 37.9544 35.8418 37.9544 35.1752C37.9544 34.5085 38.5143 33.9677 39.2045 33.9677C39.8946 33.9677 40.4545 34.5085 40.4545 35.1752C40.4545 35.8418 39.8946 36.3827 39.2045 36.3827ZM43.2669 36.3827C42.5768 36.3827 42.0169 35.8418 42.0169 35.1752C42.0169 34.5085 42.5768 33.9677 43.2669 33.9677C43.9571 33.9677 44.517 34.5085 44.517 35.1752C44.517 35.8418 43.9572 36.3827 43.2669 36.3827Z" fill="#3A7CA5"/>
<path d="M9.91087 8.7517C9.65535 9.21709 9.44217 9.70678 9.2794 10.2185C8.04886 10.2185 6.48492 9.94419 6.48492 11.1029C6.48492 15.5773 6.01297 15.1898 9.27773 15.1898C9.44227 15.7015 9.65535 16.1921 9.91087 16.6573C7.9692 18.5322 7.71515 18.3585 9.36734 19.9534C10.4008 18.8733 11.3708 18.6815 14.4095 17.4584C12.8081 16.4388 11.7469 14.6914 11.7469 12.7049C11.7469 9.56444 14.3917 7.00969 17.642 7.00969C21.3056 7.00969 24.159 10.2413 23.4216 13.8305L28.8007 11.664C28.8007 9.98418 28.3336 10.2184 26.0061 10.2184C25.8434 9.70668 25.6285 9.21618 25.373 8.75079C26.2422 7.91051 27.5524 7.03318 26.7044 6.21406C23.4101 3.03122 24.0449 3.0052 21.7337 5.2369C21.2519 4.99008 20.7457 4.78335 20.2136 4.62694C20.2136 3.44073 20.4967 1.92752 19.3004 1.92752C14.6682 1.92752 15.0702 1.47002 15.0702 4.62694C14.5397 4.78335 14.0319 4.99008 13.5501 5.2369C12.6809 4.39662 11.7745 3.13337 10.9248 3.95087C7.65185 7.11113 7.59651 6.51757 9.91087 8.7517Z" fill="#3A7CA5"/>
<path d="M17.642 8.61963C15.3098 8.61963 13.4136 10.4519 13.4136 12.7049C13.4136 14.571 14.7221 16.1321 16.4946 16.6189L21.3254 14.6741C22.935 11.8717 20.7768 8.61963 17.642 8.61963Z" fill="#3A7CA5"/>
<path d="M31.4098 12.3582L11.6752 20.3032C7.86987 21.8353 10.2169 27.477 14.0987 25.9175L33.835 17.9732C38.9783 19.7137 39.1898 19.9314 43.0685 17.5558C45.1991 16.2502 44.7107 12.984 43.4037 13.5059L39.9467 14.8965C39.3429 15.1401 38.6447 14.8649 38.3908 14.2762C36.6394 10.22 36.3743 10.9738 41.4328 8.93792C42.7008 8.42778 40.7037 5.76369 38.2182 6.31787L36.5028 6.69599C33.4493 7.36963 32.7608 9.61551 31.4098 12.3582Z" fill="#3A7CA5"/>
</svg>
